<svg xmlns:dc="http://purl.org/dc/elements/1.1/" xmlns:cc="http://creativecommons.org/ns#" xmlns:rdf="http://www.w3.org/1999/02/22-rdf-syntax-ns#" xmlns:svg="http://www.w3.org/2000/svg" xmlns="http://www.w3.org/2000/svg" xmlns:sodipodi="http://sodipodi.sourceforge.net/DTD/sodipodi-0.dtd" xmlns:inkscape="http://www.inkscape.org/namespaces/inkscape" id="svg2" version="1.1" inkscape:version="0.91 r13725" sodipodi:docname="weather-balloon-EPA.svg" viewBox="124.58 20.28 572.43 1253.42">
  <metadata id="metadata85">
    <rdf:RDF>
      <cc:Work rdf:about="">
        <dc:format>image/svg+xml</dc:format>
        <dc:type rdf:resource="http://purl.org/dc/dcmitype/StillImage"/>
        <dc:title/>
        <dc:creator>
          <cc:Agent>
            <dc:title>EPA</dc:title>
          </cc:Agent>
        </dc:creator>
        <dc:description>remix by j4p4n</dc:description>
        <cc:license rdf:resource="http://creativecommons.org/publicdomain/zero/1.0/"/>
      </cc:Work>
      <cc:License rdf:about="http://creativecommons.org/publicdomain/zero/1.0/">
        <cc:permits rdf:resource="http://creativecommons.org/ns#Reproduction"/>
        <cc:permits rdf:resource="http://creativecommons.org/ns#Distribution"/>
        <cc:permits rdf:resource="http://creativecommons.org/ns#DerivativeWorks"/>
      </cc:License>
    </rdf:RDF>
  </metadata>
  <sodipodi:namedview pagecolor="#ffffff" bordercolor="#666666" borderopacity="1" objecttolerance="10" gridtolerance="10" guidetolerance="10" inkscape:pageopacity="0" inkscape:pageshadow="2" inkscape:window-width="1916" inkscape:window-height="1035" id="namedview83" showgrid="false" fit-margin-top="0" fit-margin-left="0" fit-margin-right="0" fit-margin-bottom="0" inkscape:zoom="0.35998268" inkscape:cx="360.24901" inkscape:cy="798.99495" inkscape:window-x="4" inkscape:window-y="1" inkscape:window-maximized="1" inkscape:current-layer="g11"/>
  <defs id="defs4">
    <radialGradient id="weatherballoon-a" cx="12.611418" cy="8.9890871" r="18.568863" fx="12.611418" fy="8.9890871" gradientTransform="scale(0.98320908,1.0170777)" gradientUnits="userSpaceOnUse">
      <stop offset="0%" stop-color="#FFF" id="stop7"/>
      <stop offset="100%" stop-color="#C5ECF3" id="stop9"/>
    </radialGradient>
  </defs>
  <g id="g11" transform="matrix(6,0,0,6,224,615.34993)" style="fill:none">
    <g transform="translate(3,0)" id="g15">
      <g transform="translate(0,57)" id="g45"/>
    </g>
    <g id="g4173" transform="matrix(3,0,0,3,-40.166667,-98.624992)">
      <g transform="translate(0.66666666,-0.66666666)" id="g4244">
        <g style="fill:none" transform="translate(7,0)" id="g19">
          <g transform="translate(11,52)" id="g21">
            <path d="M 7.4,4.5 9.7,1 c 0,0 0.3,-0.2 0.5,-0.1 0.3,0.2 0.3,0.6 0.3,0.6 L 8,5 7.4,4.5 Z M 4,6.7 1.7,3.2 C 1.7,3.2 1.4,3 1.2,3.1 0.9,3.3 0.9,3.7 0.9,3.7 L 3.5,7.2 4,6.7 Z m 1.3,6.8 -0.1,4.2 c 0,0 0.2,0.4 0.3,0.4 0.3,0 0.6,-0.3 0.6,-0.3 l 0,-4.4 -0.8,0.1 z" id="path23" inkscape:connector-curvature="0" style="fill:#68a9bb"/>
            <g transform="translate(0,3)" id="g25">
              <polygon points="0.6,2.9 5.6,5.7 5.6,11.4 0.6,8.6 " id="polygon27" style="fill:#a5d5e1"/>
              <polygon points="1.5,4.3 4.8,6.2 4.8,10 1.5,8.1 " id="polygon29" style="fill:#91c3d5"/>
              <polygon points="5.6,5.7 10.5,2.9 10.5,8.6 5.6,11.4 " id="polygon31" style="fill:#91c3d5"/>
              <path sodipodi:nodetypes="ccccc" inkscape:connector-curvature="0" id="polygon33" d="M 0.74693973,2.7530603 5.6,0 10.5,2.9 5.6938795,5.6295904 Z" style="fill:#e0fbff" transform="translate(-0.13700565,0.2740113)"/>
            </g>
          </g>
          <polygon points="11.9,58 11.5,57.8 16.8,49.3 16.4,35.3 16.8,35.3 17.3,49.4 " id="polygon35" style="fill:#a5d5e1"/>
          <polygon points="16.8,60.7 16.4,60.7 16.9,48.6 21.7,57.8 21.4,58 17.3,50.2 " id="polygon37" style="fill:#a5d5e1"/>
          <path d="m 16.2,30.4 -2.1,16.3 c 0,0 0,2.3 2.9,2.4 3,0.1 3.1,-2.6 3.1,-2.6 L 17.4,30.3 c -0.1,0.1 -1.2,0.1 -1.2,0.1 z" id="path39" inkscape:connector-curvature="0" style="fill:#f16522"/>
          <path d="M 32,16.5 C 32,25.3 25.7,38.1 17.1,44.8 8.5,39 0.2,25.3 0.2,16.5 0.2,7.7 7.3,0.6 16.1,0.6 24.8,0.6 32,7.7 32,16.5 Z" id="path41" inkscape:connector-curvature="0" style="fill:#c5ecf3"/>
          <path d="M 25.2,22.2 C 20.6,28.7 12,30.6 6.1,26.3 0.2,22.1 -0.9,13.4 3.8,6.9 8.5,0.4 17,-1.5 22.9,2.8 28.7,7 29.8,15.7 25.2,22.2 Z" id="path43" style="fill:url(#weatherballoon-a)" inkscape:connector-curvature="0"/>
        </g>
        <path d="m 34.1,7 c -1.9,-3.3 -5.3,-5.2 -10,-5.5 -0.3,0 -0.6,0 -0.9,0 l 0,0 0,0 0,0 0,0 0,0 0,0 c -0.3,0 -0.6,0 -0.9,0 -4.6,0.3 -7.9,2.2 -9.8,5.4 -2.9,5 -2.3,13.2 1.7,24.5 2.9,8.4 6.8,15.3 6.8,15.4 l 0.1,0.1 c 1,0.6 1.9,0.9 2.9,0.9 1,0 2.1,-0.3 3.2,-1 l 0.1,-0.1 c 0,-0.1 3.5,-7 6.1,-15.2 C 36.8,20.2 37.1,12.1 34.1,7 Z M 24.6,2.2 C 24.5,2.1 24.5,2.1 24.4,2 c 1.8,0.3 3.3,1.2 4.4,2.7 7,9.6 -2.4,40.7 -2.9,42.2 -0.3,0.1 -0.6,0.3 -1,0.3 C 25.1,45.5 26.1,36.5 26.6,27 27.4,12.9 26.7,4.6 24.6,2.2 Z M 12.8,7.1 c 1.4,-2.4 3.6,-4 6.7,-4.8 -0.8,0.5 -1.6,1.1 -2.2,2 -2.9,4.2 -3,12.6 -0.3,25.2 1.7,8.1 4.2,15.3 4.8,17.2 C 21.6,46.6 21.5,46.5 21.3,46.4 20.5,45.2 6.2,18.6 12.8,7.1 Z m 9,-5.1 c -0.1,0 -0.1,0.1 -0.2,0.2 -4.6,5.4 1,41.5 1.5,45.1 -0.3,0 -0.6,-0.1 -0.9,-0.2 C 21.6,45.2 10.9,14.1 17.5,4.7 18.6,3.2 20.1,2.3 21.8,2 Z m 1.8,45.3 C 23.2,45 17.5,7.8 22,2.4 22.3,2 22.7,1.8 23.1,1.8 l 0,0 0,0 c 0.4,0 0.8,0.2 1.2,0.6 4.7,5.3 0.6,42.1 0.3,44.8 -0.4,0.1 -0.7,0.1 -1,0.1 z m 3.2,-0.9 c -0.1,0.1 -0.3,0.2 -0.4,0.2 C 27,44.8 29,37.6 30.5,29.5 32.7,17 32.2,8.6 29.2,4.4 28.6,3.5 27.8,2.8 26.9,2.4 c 3.1,0.8 5.5,2.4 6.9,4.9 6.7,11.4 -6.3,37.7 -7,39.1 z" id="path81" inkscape:connector-curvature="0" style="fill:#ececec"/>
      </g>
    </g>
  </g>
</svg>